<?xml version="1.0" standalone="no"?>
<!DOCTYPE svg PUBLIC "-//W3C//DTD SVG 20010904//EN"
 "http://www.w3.org/TR/2001/REC-SVG-20010904/DTD/svg10.dtd">
<svg version="1.0" xmlns="http://www.w3.org/2000/svg"
 width="700.000000pt" height="700.000000pt" viewBox="0 0 700.000000 700.000000"
 preserveAspectRatio="xMidYMid meet">
<style>
  g { fill: #d65d0e }
  @media (prefers-color-scheme: dark) {
  g { fill: #fe8019 }
  }
</style>
<g transform="translate(0.000000,700.000000) scale(0.100000,-0.100000)"
 stroke="none">
<path d="M547 5644 c-1 -1 -25 -4 -53 -8 -191 -22 -340 -158 -413 -376 -3 -8
-7 -793 -8 -1745 -2 -1418 0 -1739 11 -1780 36 -138 137 -265 256 -323 64 -32
74 -35 155 -50 22 -4 1386 -7 3030 -6 l2990 1 66 21 c167 55 290 185 335 355
11 43 14 343 13 1772 0 1673 -1 1722 -20 1781 -54 174 -193 304 -364 345 -38
9 -776 12 -3023 13 -1636 0 -2974 0 -2975 0z m1336 -989 c54 -71 103 -137 110
-145 7 -8 50 -67 97 -130 46 -63 87 -117 90 -120 3 -3 30 -39 60 -80 30 -41
85 -114 122 -163 l67 -88 321 428 322 428 429 1 429 0 -2 -1285 -3 -1286 -425
0 -425 0 -5 639 -5 639 -45 -59 c-24 -32 -50 -65 -57 -74 -15 -17 -147 -187
-265 -340 -45 -58 -84 -107 -87 -110 -3 -3 -26 -32 -51 -65 -25 -33 -53 -69
-63 -79 -9 -11 -27 -35 -40 -53 -12 -18 -24 -33 -27 -33 -3 0 -22 21 -42 48
-176 224 -256 327 -338 432 -52 68 -100 128 -105 134 -6 6 -37 46 -70 90 -75
99 -81 106 -86 106 -2 0 -4 -282 -3 -627 0 -346 -1 -633 -3 -639 -3 -7 -136
-10 -428 -10 l-425 0 -1 35 c0 49 0 2423 0 2486 l1 51 427 0 428 0 98 -131z
m3762 -510 l0 -640 318 -3 c174 -1 317 -4 317 -7 0 -2 -19 -31 -42 -64 -77
-107 -352 -490 -587 -816 -127 -176 -236 -328 -243 -338 -7 -11 -55 -77 -106
-148 l-94 -129 -72 102 c-40 57 -114 162 -165 233 -162 228 -461 649 -613 863
-80 114 -160 226 -177 249 -17 23 -31 45 -31 48 0 3 143 5 318 5 l318 0 -1
633 c0 347 3 637 7 642 4 7 149 11 430 10 l423 0 0 -640z"/>
</g>
</svg>
